<svg xmlns="http://www.w3.org/2000/svg" viewBox="0 0 64 64">
  <circle cx="32" cy="32" r="30" fill="#f6d24b" stroke="#1f1f1b" stroke-width="2"/>
  <path d="M19 9.5 A26 26 0 0 1 45 9.5 L36.5 24.2 A9 9 0 0 0 27.5 24.2 Z" fill="#12100b"/>
  <path d="M19 9.5 A26 26 0 0 1 45 9.5 L36.5 24.2 A9 9 0 0 0 27.5 24.2 Z" fill="#12100b" transform="rotate(120 32 32)"/>
  <path d="M19 9.5 A26 26 0 0 1 45 9.5 L36.5 24.2 A9 9 0 0 0 27.5 24.2 Z" fill="#12100b" transform="rotate(240 32 32)"/>
  <circle cx="32" cy="32" r="6" fill="#12100b"/>
</svg>
